<?xml version="1.0" encoding="UTF-8" standalone="no"?>
<!-- Created with Inkscape (http://www.inkscape.org/) -->

<svg
   sodipodi:docname=".source-logo.svg"
   inkscape:version="1.1 (c4e8f9ed74, 2021-05-24)"
   id="svg5"
   version="1.1"
   viewBox="0 0 450 100"
   height="100mm"
   width="450mm"
   xmlns:inkscape="http://www.inkscape.org/namespaces/inkscape"
   xmlns:sodipodi="http://sodipodi.sourceforge.net/DTD/sodipodi-0.dtd"
   xmlns="http://www.w3.org/2000/svg"
   xmlns:svg="http://www.w3.org/2000/svg">
  <sodipodi:namedview
     id="namedview7"
     pagecolor="#ffffff"
     bordercolor="#666666"
     borderopacity="1.0"
     inkscape:pageshadow="2"
     inkscape:pageopacity="0.0"
     inkscape:pagecheckerboard="0"
     inkscape:document-units="mm"
     showgrid="false"
     inkscape:zoom="0.25"
     inkscape:cx="862"
     inkscape:cy="-302"
     inkscape:window-width="1920"
     inkscape:window-height="1005"
     inkscape:window-x="1280"
     inkscape:window-y="0"
     inkscape:window-maximized="1"
     inkscape:current-layer="layer1"
     inkscape:object-nodes="true"
     width="500mm"
     inkscape:snap-global="true"
     height="100mm" />
  <defs
     id="defs2" />
  <g
     inkscape:groupmode="layer"
     id="layer2"
     inkscape:label="Calque 2"
     style="display:inline">
    <path
       id="path54683"
       style="fill:#e3474b;fill-opacity:1;stroke-width:0.133256"
       d="M 0.28901386,10.031427 0.44907798,49.532654 33.377521,49.463421 49.118982,29.785425 Z M 17.270646,25.90042 a 9.5278492,9.5278492 0 0 1 9.527849,9.527849 9.5278492,9.5278492 0 0 1 -9.527849,9.52785 9.5278492,9.5278492 0 0 1 -9.5278493,-9.52785 9.5278492,9.5278492 0 0 1 9.5278493,-9.527849 z" />
    <path
       id="path54681"
       style="fill:#ff9100;fill-opacity:1;stroke-width:0.503645"
       d="m 189.45898,114.4668 -59.93554,73.96093 58.45117,74.40625 189.12695,-74.87304 z M 229.25,151 A 35.749998,35.749998 0 0 1 265,186.75 35.749998,35.749998 0 0 1 229.25,222.5 35.749998,35.749998 0 0 1 193.5,186.75 35.749998,35.749998 0 0 1 229.25,151 Z"
       transform="scale(0.26458333)" />
    <path
       id="path469"
       style="fill:#472d8e;fill-opacity:1;stroke-width:0.133256"
       d="M 33.412658,50.275199 0.4175857,50.513856 0.16226384,89.387576 48.635927,69.900091 Z m -14.60956,6.607385 a 9.5278492,9.5278492 0 0 1 9.527849,9.527858 9.5278492,9.5278492 0 0 1 -9.527849,9.527848 9.5278492,9.5278492 0 0 1 -9.52785,-9.527848 9.5278492,9.5278492 0 0 1 9.52785,-9.527858 z" />
  </g>
  <g
     inkscape:label="Calque 1"
     inkscape:groupmode="layer"
     id="layer1"
     style="display:inline">
    <path
       style="fill:#000000;stroke-width:0.315421"
       id="path104326"
       d="" />
    <g
       id="g104457"
       transform="matrix(0.38311283,0,0,0.38311283,51.38729,40.200387)">
      <path
         fill="#ff9100"
         d="M 9,26.5 C 9,16.835 16.835,9 26.5,9 35.743,9 43.293,16.171 43.937,25.25 43.963,24.834 44,24.422 44,24 44,12.954 35.046,4 24,4 12.954,4 4,12.954 4,24 c 0,11.046 8.954,20 20,20 0.422,0 0.834,-0.037 1.25,-0.063 C 16.171,43.293 9,35.743 9,26.5 Z"
         id="path104445" />
      <path
         fill="#ff9100"
         d="M 36.5,28 A 6.5,6.5 0 0 1 30,21.5 6.496,6.496 0 0 1 33.829,15.579 13.429,13.429 0 0 0 27.5,14 C 20.044,14 14,20.044 14,27.5 14,34.956 20.044,41 27.5,41 34.956,41 41,34.956 41,27.5 41,27.075 40.975,26.656 40.936,26.241 A 6.469,6.469 0 0 1 36.5,28 Z"
         id="path104447" />
    </g>
    <path
       d="M 17.905201,74.101474 C 17.039925,73.976903 16.281725,73.744116 15.541406,73.375768 11.828593,71.52827 10.28433,67.072449 12.056561,63.320593 c 1.505855,-3.187857 5.066483,-4.913027 8.536994,-4.136202 2.904403,0.650041 5.13229,2.927054 5.770402,5.897431 0.119001,0.554018 0.164228,1.81636 0.08713,2.432406 -0.105702,0.844358 -0.358375,1.675702 -0.745245,2.45225 -0.415471,0.833804 -0.834151,1.394186 -1.570856,2.102401 -1.111766,1.068775 -2.361564,1.699032 -3.952711,1.993157 -0.492572,0.09111 -1.76524,0.113088 -2.277072,0.03943 z m 1.856037,-2.9533 c 0.44998,-0.08923 1.054329,-0.388309 1.341915,-0.663964 0.284433,-0.27274 0.542269,-0.669864 0.658629,-1.014327 0.04963,-0.147082 0.09034,-0.283165 0.09034,-0.302425 0,-0.01927 -1.310272,-0.03498 -2.911627,-0.03498 h -2.911683 l 0.0263,0.162686 c 0.0422,0.261218 0.316418,0.767427 0.561188,1.03576 0.37643,0.412776 0.865679,0.682818 1.48407,0.819179 0.362851,0.08004 1.252546,0.07896 1.660856,-0.002 z"
       fill="#472d8e"
       id="path104699"
       style="stroke-width:0.0573221" />
    <g
       style="fill:#e3474b"
       id="g104800"
       transform="matrix(0.1585526,0,0,0.1585526,93.51797,-6.6767923)">
      <path
         d="m -510.2,228.5 c -8.4,6.3 -15,15.7 -17.8,26.8 -4.2,16.7 0.7,33.8 11.8,45.3 0,0 2.1,2.1 2.4,1.7 0,0 0,0 -0.3,-1 -8.7,-13.6 -4.2,-27.9 -1.7,-33.4 0.3,-1 0.7,-0.7 0.7,-0.7 0.3,0 0.7,1.4 0.7,1.4 2.1,20.2 9.1,33.4 13.2,39.7 0,0 1,1.7 1.7,1 0,0 0.3,-0.3 0.3,-1.4 -0.3,-5.9 1,-18.8 12.5,-42.5 10.8,-22.3 15.7,-34.5 17.4,-40.4 0,0 0.7,-1.7 0,-2.1 0,0 -0.7,-0.3 -1.7,1 -5.9,6.6 -18.8,21.2 -24.7,29.6 0,0 -0.7,0.7 -1,0.7 0,0 -0.3,0 -0.3,-1.4 0.3,-6.6 2.8,-23.7 11.5,-31.3 0,0 1,-0.7 0.7,-1.4 0,0 -0.3,-0.7 -2.4,0 -8.4,3.1 -22.6,10.4 -31,28.6 0,0 -0.3,1 -0.7,1 0,0 -0.3,0 0,-1.7 0.7,-4.5 2.8,-12.9 9.8,-19.5 0,0 1.4,-1.4 1,-1.4 0.3,0 -0.1,0 -2.1,1.4 z"
         id="path104788" />
      <path
         d="m -451.7,305.9 c 8.7,-6.3 15,-15.7 17.8,-26.8 4.2,-16.7 -0.7,-33.8 -11.8,-45.3 0,0 -2.1,-2.1 -2.4,-1.7 0,0 0,0 0.3,1 8.7,13.6 4.2,27.9 1.7,33.4 -0.3,1 -0.7,0.7 -0.7,0.7 -0.3,0 -0.7,-1.4 -0.7,-1.4 -2.1,-20.2 -9.1,-33.4 -13.2,-39.7 0,0 -1,-1.7 -1.7,-1 0,0 -0.3,0.3 -0.3,1.4 0.3,5.9 -1,18.8 -12.5,42.5 -10.8,22.3 -15.7,34.5 -17.4,40.4 0,0 -0.7,1.7 0,2.1 0,0 0.7,0.3 1.7,-1 5.9,-6.6 18.8,-21.2 24.7,-29.6 0,0 0.7,-0.7 1,-0.7 0,0 0.3,0 0.3,1.4 -0.3,6.6 -2.8,23.7 -11.5,31.3 0,0 -1,0.7 -0.7,1.4 0,0 0.3,0.7 2.1,0 8.4,-3.1 22.6,-10.4 31,-28.6 0,0 0.3,-1 0.7,-1 0,0 0.3,0 0,1.7 -0.7,4.5 -2.8,12.9 -9.8,19.5 0,0 -1.4,1.4 -1,1.4 0.3,0 0.3,0 2.4,-1.4 z"
         id="path104790" />
    </g>
    <text
       xml:space="preserve"
       style="font-style:normal;font-weight:normal;font-size:35.2778px;line-height:1.25;font-family:sans-serif;fill:#000000;fill-opacity:1;stroke:none;stroke-width:0.264583"
       x="115.88748"
       y="61.383331"
       id="text6510"><tspan
         sodipodi:role="line"
         id="tspan6508"
         style="font-size:35.2778px;stroke-width:0.264583"
         x="115.88748"
         y="61.383331">Anime Watch Parties</tspan></text>
  </g>
</svg>
