<svg width="100" height="100" xmlns="http://www.w3.org/2000/svg">
    <defs>
        <linearGradient id="prefix__a" x1="3.36" y1="40.61" x2="126.63" y2="4.38" gradientUnits="userSpaceOnUse"
            gradientTransform="matrix(.50667 0 0 .50667 175.716 29.698)">
            <stop offset="0" stop-color="#0095ff" />
            <stop offset=".69" stop-color="#5c35de" />
            <stop offset=".99" stop-color="#5c00ff" />
            <stop offset="1" stop-color="#5c00ff" />
        </linearGradient>
    </defs>
    <path d="M.58 10.487l49.405 19.98L.841 50.135z" fill="#e3474b" />
    <path d="M49.985 30.466l49.177 19.659-49.306 19.594z" fill="#ff9100" />
    <path d="M49.985 30.466L.841 50.136l49.015 19.583z" fill="#472d8e" />
    <path d="M.841 50.136L.51 90.05l49.346-20.331z" fill="#197bf6" />
    <circle cx="17.688" cy="30.687" r="8.812" fill="#fff" />
    <circle cx="18.25" cy="70.063" r="8.812" fill="#fff" />
    <circle cx="36" cy="50.125" r="8.812" fill="#fff" />
    <circle cx="64.625" cy="50.25" r="8.812" fill="#fff" />
    <g fill="#e3474b">
        <path
            d="M13.242 24.983a7.304 7.304 0 00-2.682 4.038c-.633 2.515.105 5.092 1.778 6.824 0 0 .316.316.361.256l-.045-.15c-1.31-2.05-.633-4.204-.256-5.032.045-.15.105-.106.105-.106.046 0 .106.211.106.211.316 3.043 1.37 5.032 1.988 5.981 0 0 .151.256.257.15 0 0 .045-.045.045-.21-.045-.89.15-2.832 1.883-6.403 1.627-3.36 2.365-5.197 2.621-6.086 0 0 .106-.256 0-.317 0 0-.105-.045-.256.151-.889.994-2.832 3.194-3.721 4.46 0 0-.105.105-.15.105 0 0-.046 0-.046-.211.045-.994.422-3.57 1.733-4.715 0 0 .15-.106.105-.211 0 0-.045-.106-.361 0-1.266.467-3.405 1.566-4.67 4.308 0 0-.046.15-.106.15 0 0-.045 0 0-.255.105-.678.422-1.944 1.476-2.938 0 0 .211-.21.151-.21.045 0-.015 0-.316.21zM22.055 36.643c1.31-.949 2.26-2.365 2.681-4.037.633-2.516-.105-5.092-1.777-6.824 0 0-.317-.317-.362-.257l.045.151c1.31 2.049.633 4.203.256 5.032-.045.15-.105.105-.105.105-.045 0-.106-.21-.106-.21-.316-3.044-1.37-5.032-1.988-5.981 0 0-.15-.257-.256-.151 0 0-.045.045-.045.21.045.89-.151 2.833-1.884 6.403-1.627 3.36-2.365 5.198-2.62 6.087 0 0-.106.256 0 .316 0 0 .105.045.255-.15.889-.995 2.832-3.194 3.721-4.46 0 0 .106-.105.15-.105 0 0 .046 0 .046.21-.045.995-.422 3.571-1.732 4.716 0 0-.151.105-.106.21 0 0 .045.106.317 0 1.265-.466 3.404-1.566 4.67-4.308 0 0 .045-.15.105-.15 0 0 .045 0 0 .256-.105.678-.422 1.943-1.476 2.937 0 0-.211.211-.15.211.044 0 .044 0 .36-.21z" />
    </g>
    <path
        d="M35.112 57.423a7.372 7.372 0 01-2.292-.703 7.357 7.357 0 01-3.377-9.746c1.46-3.09 4.91-4.762 8.274-4.01 2.815.63 4.975 2.838 5.593 5.717.116.537.16 1.76.085 2.358a7.403 7.403 0 01-.723 2.376c-.402.809-.808 1.352-1.522 2.038-1.078 1.036-2.29 1.647-3.831 1.932-.478.088-1.711.11-2.207.038zm1.799-2.862c.436-.087 1.021-.377 1.3-.644a2.657 2.657 0 00.726-1.276c0-.019-1.27-.034-2.822-.034h-2.822l.025.158c.041.253.307.744.544 1.004.365.4.84.661 1.439.794.351.077 1.214.076 1.61-.002z"
        fill="#472d8e" />
    <g data-name="Calque 2">
        <path
            d="M191.15 39.513c.943 0 1.415 1.14.748 1.807s-1.808.195-1.808-.748a1.074 1.074 0 011.06-1.06zm-5.463 0c.944 0 1.416 1.14.749 1.807-.667.667-1.808.195-1.808-.748a1.074 1.074 0 011.06-1.06zm10.98-.862h-16.112l3.37-8.953h9.372zm4.839 12.834h-9.536l-.547-1.621h-5.574l-.592 1.621h-9.541l3.278-8.932h19.142z"
            fill="url(#prefix__a)" data-name="Calque 1" transform="matrix(.51806 0 0 .51806 -79.345 48.913)" />
    </g>
    <g fill="#ff9100">
        <path
            d="M59.231 51.137a6.357 6.357 0 0112.699-.454c.01-.151.023-.301.023-.454a7.27 7.27 0 10-7.27 7.269c.154 0 .304-.013.455-.023a6.357 6.357 0 01-5.907-6.338z" />
        <path
            d="M69.227 51.682a2.363 2.363 0 01-2.363-2.362 2.361 2.361 0 011.392-2.152 4.881 4.881 0 00-2.3-.574 4.907 4.907 0 104.883 4.45 2.351 2.351 0 01-1.612.638z" />
    </g>
    <path d="M.58 10.487l98.582 39.638L.51 90.05z" fill="none" stroke="#fff" />
    <path d="M.841 50.136l49.144-19.67-.13 39.253z" fill="none" stroke="#fff" />
</svg>