<svg
  xmlns="http://www.w3.org/2000/svg"
  viewBox="-529.5 218.7 97 97"
  style="fill: rgb(227, 71, 75)"
>
  <path
    d="M-510.2,228.5c-8.4,6.3-15,15.7-17.8,26.8c-4.2,16.7,0.7,33.8,11.8,45.3c0,0,2.1,2.1,2.4,1.7c0,0,0,0-0.3-1 c-8.7-13.6-4.2-27.9-1.7-33.4c0.3-1,0.7-0.7,0.7-0.7c0.3,0,0.7,1.4,0.7,1.4c2.1,20.2,9.1,33.4,13.2,39.7c0,0,1,1.7,1.7,1 c0,0,0.3-0.3,0.3-1.4c-0.3-5.9,1-18.8,12.5-42.5c10.8-22.3,15.7-34.5,17.4-40.4c0,0,0.7-1.7,0-2.1c0,0-0.7-0.3-1.7,1 c-5.9,6.6-18.8,21.2-24.7,29.6c0,0-0.7,0.7-1,0.7c0,0-0.3,0-0.3-1.4c0.3-6.6,2.8-23.7,11.5-31.3c0,0,1-0.7,0.7-1.4 c0,0-0.3-0.7-2.4,0c-8.4,3.1-22.6,10.4-31,28.6c0,0-0.3,1-0.7,1c0,0-0.3,0,0-1.7c0.7-4.5,2.8-12.9,9.8-19.5c0,0,1.4-1.4,1-1.4 C-507.8,227.1-508.2,227.1-510.2,228.5z"
  />
  <path
    d="M-451.7,305.9c8.7-6.3,15-15.7,17.8-26.8c4.2-16.7-0.7-33.8-11.8-45.3c0,0-2.1-2.1-2.4-1.7c0,0,0,0,0.3,1 c8.7,13.6,4.2,27.9,1.7,33.4c-0.3,1-0.7,0.7-0.7,0.7c-0.3,0-0.7-1.4-0.7-1.4c-2.1-20.2-9.1-33.4-13.2-39.7c0,0-1-1.7-1.7-1 c0,0-0.3,0.3-0.3,1.4c0.3,5.9-1,18.8-12.5,42.5c-10.8,22.3-15.7,34.5-17.4,40.4c0,0-0.7,1.7,0,2.1c0,0,0.7,0.3,1.7-1 c5.9-6.6,18.8-21.2,24.7-29.6c0,0,0.7-0.7,1-0.7c0,0,0.3,0,0.3,1.4c-0.3,6.6-2.8,23.7-11.5,31.3c0,0-1,0.7-0.7,1.4 c0,0,0.3,0.7,2.1,0c8.4-3.1,22.6-10.4,31-28.6c0,0,0.3-1,0.7-1c0,0,0.3,0,0,1.7c-0.7,4.5-2.8,12.9-9.8,19.5c0,0-1.4,1.4-1,1.4 C-453.8,307.3-453.8,307.3-451.7,305.9z"
  />
</svg>
