<svg viewBox="0 0 450 100" height="100mm" width="450mm" xmlns="http://www.w3.org/2000/svg">
    <defs>
        <linearGradient id="prefix__a" x1="3.36" y1="40.61" x2="126.63" y2="4.38" gradientUnits="userSpaceOnUse"
            gradientTransform="matrix(.50667 0 0 .50667 175.716 29.698)">
            <stop offset="0" stop-color="#0095ff" />
            <stop offset=".69" stop-color="#5c35de" />
            <stop offset=".99" stop-color="#5c00ff" />
            <stop offset="1" stop-color="#5c00ff" />
        </linearGradient>
    </defs><text style="line-height:1.25" x="115.887" y="61.383" font-weight="400" font-size="35.278"
        font-family="sans-serif" stroke-width=".265">
        <tspan x="115.887" y="61.383">Anime Watch Parties</tspan>
    </text>
    <path d="M.562 9.541l50.252 20.322L.827 49.869z" fill="#e3474b" />
    <path d="M50.814 29.863l50.02 19.995-50.152 19.93z" fill="#ff9100" />
    <path d="M50.814 29.863L.827 49.869l49.855 19.92z" fill="#472d8e" />
    <path d="M.827 49.87L.49 90.467l50.192-20.68z" fill="#197bf6" />
    <circle cx="17.962" cy="30.088" r="8.964" fill="#fff" />
    <circle cx="18.535" cy="70.138" r="8.964" fill="#fff" />
    <circle cx="36.589" cy="49.858" r="8.964" fill="#fff" />
    <circle cx="65.705" cy="49.986" r="8.964" fill="#fff" />
    <g fill="#e3474b">
        <path
            d="M13.44 24.285a7.43 7.43 0 00-2.727 4.107c-.644 2.56.107 5.18 1.808 6.942 0 0 .322.321.368.26l-.046-.153c-1.334-2.084-.644-4.275-.26-5.118.045-.153.106-.107.106-.107.046 0 .108.214.108.214.321 3.095 1.394 5.118 2.022 6.083 0 0 .154.261.26.154 0 0 .047-.046.047-.215-.046-.904.153-2.88 1.915-6.512 1.655-3.417 2.406-5.287 2.666-6.19 0 0 .108-.261 0-.323 0 0-.107-.046-.26.154-.904 1.01-2.88 3.248-3.785 4.535 0 0-.107.108-.153.108 0 0-.046 0-.046-.215.046-1.011.429-3.632 1.762-4.796 0 0 .153-.107.107-.215 0 0-.046-.107-.367 0-1.288.475-3.463 1.594-4.75 4.383 0 0-.047.153-.108.153 0 0-.046 0 0-.26.107-.69.43-1.977 1.502-2.989 0 0 .214-.214.153-.214.046 0-.015 0-.322.214zM22.404 36.146c1.334-.966 2.299-2.406 2.728-4.107.644-2.559-.107-5.18-1.808-6.941 0 0-.322-.322-.368-.26l.046.152c1.333 2.084.644 4.276.26 5.118-.045.154-.107.108-.107.108-.046 0-.107-.215-.107-.215-.322-3.095-1.394-5.118-2.023-6.083 0 0-.153-.26-.26-.154 0 0-.046.046-.046.215.046.904-.153 2.88-1.916 6.512-1.655 3.418-2.405 5.287-2.666 6.191 0 0-.107.26 0 .322 0 0 .107.046.26-.153.905-1.012 2.881-3.249 3.785-4.536 0 0 .108-.107.154-.107 0 0 .046 0 .046.214-.046 1.011-.43 3.632-1.762 4.796 0 0-.154.108-.108.215 0 0 .046.107.322 0 1.287-.475 3.463-1.594 4.75-4.383 0 0 .046-.153.108-.153 0 0 .046 0 0 .26-.108.69-.43 1.977-1.502 2.989 0 0-.215.214-.153.214.046 0 .046 0 .367-.214z" />
    </g>
    <path
        d="M35.685 57.282a7.498 7.498 0 01-2.33-.716 7.483 7.483 0 01-3.436-9.913c1.485-3.143 4.995-4.843 8.417-4.078 2.863.641 5.06 2.886 5.689 5.815.117.546.161 1.79.085 2.398a7.53 7.53 0 01-.734 2.417c-.41.822-.823 1.375-1.549 2.073-1.096 1.054-2.328 1.675-3.897 1.965-.485.09-1.74.112-2.245.039zm1.83-2.912c.444-.088 1.04-.383 1.323-.654a2.702 2.702 0 00.738-1.298c0-.02-1.291-.035-2.87-.035h-2.87l.025.16c.042.258.312.757.553 1.021.371.407.854.674 1.463.808.358.079 1.235.078 1.638-.002z"
        fill="#472d8e" />
    <g data-name="Calque 2">
        <path
            d="M191.15 39.513c.943 0 1.415 1.14.748 1.807s-1.808.195-1.808-.748a1.074 1.074 0 011.06-1.06zm-5.463 0c.944 0 1.416 1.14.749 1.807-.667.667-1.808.195-1.808-.748a1.074 1.074 0 011.06-1.06zm10.98-.862h-16.112l3.37-8.953h9.372zm4.839 12.834h-9.536l-.547-1.621h-5.574l-.592 1.621h-9.541l3.278-8.932h19.142z"
            fill="url(#prefix__a)" data-name="Calque 1" transform="translate(-80.734 48.626) scale(.52694)" />
    </g>
    <g fill="#ff9100">
        <path
            d="M60.219 50.888a6.466 6.466 0 0112.916-.462c.01-.154.023-.306.023-.462a7.394 7.394 0 10-7.394 7.394c.156 0 .308-.014.462-.023a6.466 6.466 0 01-6.007-6.447z" />
        <path
            d="M70.385 51.443a2.403 2.403 0 01-2.403-2.403 2.402 2.402 0 011.416-2.19 4.965 4.965 0 00-2.34-.583 4.99 4.99 0 104.967 4.525 2.392 2.392 0 01-1.64.65z" />
    </g>
    <path d="M.562 9.541l100.272 40.317L.49 90.468z" fill="none" stroke="#fff" stroke-width="1.017" />
    <path d="M.827 49.87l49.987-20.007-.132 39.925z" fill="none" stroke="#fff" stroke-width="1.017" />
</svg>