<svg viewBox="0 0 450 100" height="100mm" width="450mm" xmlns="http://www.w3.org/2000/svg">
    <path
        d="M.289 10.031l.16 39.502 32.929-.07 15.741-19.678zm16.982 15.87a9.528 9.528 0 019.527 9.527 9.528 9.528 0 01-9.527 9.528 9.528 9.528 0 01-9.528-9.528A9.528 9.528 0 0117.27 25.9z"
        fill="#e3474b" />
    <path
        d="M50.128 30.286L34.27 49.855 49.735 69.54l50.04-19.81zm10.528 9.666a9.459 9.459 0 019.459 9.459 9.459 9.459 0 01-9.46 9.459 9.459 9.459 0 01-9.458-9.46 9.459 9.459 0 019.459-9.458z"
        fill="#ff9100" />
    <path
        d="M33.413 50.275l-32.995.239-.256 38.874L48.636 69.9zm-14.61 6.608a9.528 9.528 0 019.528 9.527 9.528 9.528 0 01-9.528 9.528 9.528 9.528 0 01-9.528-9.528 9.528 9.528 0 019.528-9.527z"
        fill="#472d8e" />
    <g>
        <g fill="#ff9100">
            <path
                d="M54.835 50.353a6.7 6.7 0 0113.385-.479c.01-.16.024-.317.024-.479a7.662 7.662 0 10-7.662 7.662c.162 0 .32-.014.479-.024a6.7 6.7 0 01-6.226-6.68z" />
            <path
                d="M65.37 50.928a2.49 2.49 0 01-2.49-2.49 2.489 2.489 0 011.468-2.27 5.145 5.145 0 00-2.425-.604 5.172 5.172 0 105.147 4.69 2.478 2.478 0 01-1.7.674z" />
        </g>
        <path
            d="M17.905 74.101a7.605 7.605 0 01-2.364-.725 7.59 7.59 0 01-3.484-10.055c1.505-3.188 5.066-4.913 8.537-4.137 2.904.65 5.132 2.927 5.77 5.898.119.554.164 1.816.087 2.432a7.637 7.637 0 01-.745 2.452c-.416.834-.834 1.395-1.571 2.103-1.112 1.069-2.362 1.699-3.953 1.993-.492.091-1.765.113-2.277.04zm1.856-2.953c.45-.09 1.055-.388 1.342-.664a2.741 2.741 0 00.75-1.317c0-.019-1.311-.035-2.913-.035H16.03l.026.163c.042.261.317.768.561 1.036.377.413.866.683 1.484.82.363.08 1.253.078 1.661-.003z"
            fill="#472d8e" />
        <g fill="#e3474b">
            <path
                d="M12.624 29.552a7.687 7.687 0 00-2.822 4.25c-.666 2.648.111 5.359 1.871 7.182 0 0 .333.333.38.27l-.047-.159c-1.38-2.156-.666-4.424-.27-5.296.048-.158.112-.11.112-.11.047 0 .11.221.11.221.333 3.203 1.443 5.296 2.093 6.295 0 0 .159.27.27.159 0 0 .048-.048.048-.222-.048-.936.158-2.981 1.981-6.739 1.713-3.536 2.49-5.47 2.76-6.405 0 0 .11-.27 0-.333 0 0-.112-.048-.27.158-.936 1.047-2.981 3.361-3.917 4.693 0 0-.11.111-.158.111 0 0-.048 0-.048-.222.048-1.046.444-3.757 1.824-4.962 0 0 .158-.111.11-.222 0 0-.047-.111-.38 0-1.332.491-3.583 1.649-4.915 4.534 0 0-.048.159-.111.159 0 0-.048 0 0-.27.111-.713.444-2.045 1.554-3.092 0 0 .222-.221.158-.221.048 0-.015 0-.333.221zM21.9 41.824c1.38-.998 2.378-2.489 2.822-4.249.666-2.648-.111-5.359-1.87-7.182 0 0-.334-.333-.381-.27l.047.159c1.38 2.156.666 4.423.27 5.295-.048.159-.111.111-.111.111-.048 0-.111-.222-.111-.222-.333-3.202-1.443-5.295-2.093-6.294 0 0-.159-.27-.27-.159 0 0-.047.048-.047.222.047.936-.159 2.981-1.982 6.739-1.713 3.536-2.49 5.47-2.759 6.405 0 0-.111.27 0 .333 0 0 .11.048.27-.158.935-1.047 2.98-3.362 3.916-4.693 0 0 .11-.111.158-.111 0 0 .048 0 .048.222-.048 1.046-.444 3.757-1.823 4.962 0 0-.159.111-.111.222 0 0 .047.111.332 0 1.332-.491 3.584-1.649 4.916-4.534 0 0 .047-.159.11-.159 0 0 .048 0 0 .27-.11.713-.443 2.045-1.553 3.091 0 0-.222.222-.159.222.048 0 .048 0 .38-.222z" />
        </g><text style="line-height:1.25" x="115.887" y="61.383" font-weight="400" font-size="35.278"
            font-family="sans-serif" stroke-width=".265">
            <tspan x="115.887" y="61.383">Anime Watch Parties</tspan>
        </text>
    </g>
</svg>